{
  "source": "C:\\Users\\Peter\\Desktop\\stuff\\MIUN\\quantitative_research\\video_compression\\videos\\BVI-HD\\BVI-HD_CDVL_videos\\ORIG\\Boxing_1920x1080_30fps.mp4",
  "output": "C:\\Users\\Peter\\Desktop\\stuff\\MIUN\\quantitative_research\\video_compression\\compressed_videos\\BVI-HD\\h264\\2\\Boxing_1920x1080_30fps_h264.mp4",
  "codec": "h264",
  "ok": "Input #0, mov,mp4,m4a,3gp,3g2,mj2, from 'C:\\Users\\Peter\\Desktop\\stuff\\MIUN\\quantitative_research\\video_compression\\videos\\BVI-HD\\BVI-HD_CDVL_videos\\ORIG\\Boxing_1920x1080_30fps.mp4':\n  Metadata:\n    major_brand     : isom\n    minor_version   : 512\n    compatible_brands: isomiso2avc1mp41\n    encoder         : Lavf54.28.101\n  Duration: 00:00:05.00, start: 0.000000, bitrate: 238363 kb/s\n  Stream #0:0[0x1](und): Video: h264 (High 4:4:4 Predictive) (avc1 / 0x31637661), yuv420p(progressive), 1920x1080, 238359 kb/s, 30 fps, 30 tbr, 30 tbn (default)\n    Metadata:\n      handler_name    : VideoHandler\n      vendor_id       : [0][0][0][0]\n[out#0/mp4 @ 000001ecf597c4c0] Codec AVOption b:a (set bitrate (in bits/s)) has not been used for any stream. The most likely reason is either wrong type (e.g. a video option with no video streams) or that it is a private option of some decoder which was not actually used for any stream.\nStream mapping:\n  Stream #0:0 -> #0:0 (h264 (native) -> h264 (libx264))\nPress [q] to stop, [?] for help\n[libx264 @ 000001ecf622bb80] using cpu capabilities: MMX2 SSE2Fast SSSE3 SSE4.2 AVX FMA3 BMI2 AVX2\n[libx264 @ 000001ecf622bb80] profile High, level 5.0, 4:2:0, 8-bit\n[libx264 @ 000001ecf622bb80] 264 - core 165 r3222 b35605a - H.264/MPEG-4 AVC codec - Copyleft 2003-2025 - http://www.videolan.org/x264.html - options: cabac=1 ref=5 deblock=1:0:0 analyse=0x3:0x113 me=hex subme=8 psy=1 psy_rd=1.00:0.00 mixed_ref=1 me_range=16 chroma_me=1 trellis=2 8x8dct=1 cqm=0 deadzone=21,11 fast_pskip=1 chroma_qp_offset=-2 threads=18 lookahead_threads=3 sliced_threads=0 nr=0 decimate=1 interlaced=0 bluray_compat=0 constrained_intra=0 bframes=3 b_pyramid=2 b_adapt=1 b_bias=0 direct=3 weightb=1 open_gop=0 weightp=2 keyint=250 keyint_min=25 scenecut=40 intra_refresh=0 rc_lookahead=50 rc=cbr mbtree=1 bitrate=2000 ratetol=1.0 qcomp=0.60 qpmin=0 qpmax=69 qpstep=4 vbv_maxrate=2000 vbv_bufsize=2000 nal_hrd=none filler=0 ip_ratio=1.40 aq=1:1.00\nOutput #0, mp4, to 'C:\\Users\\Peter\\Desktop\\stuff\\MIUN\\quantitative_research\\video_compression\\compressed_videos\\BVI-HD\\h264\\2\\Boxing_1920x1080_30fps_h264.mp4':\n  Metadata:\n    major_brand     : isom\n    minor_version   : 512\n    compatible_brands: isomiso2avc1mp41\n    encoder         : Lavf62.3.100\n  Stream #0:0(und): Video: h264 (avc1 / 0x31637661), yuv420p(tv, progressive), 1920x1080, q=2-31, 2000 kb/s, 30 fps, 15360 tbn (default)\n    Metadata:\n      encoder         : Lavc62.11.100 libx264\n      handler_name    : VideoHandler\n      vendor_id       : [0][0][0][0]\n    Side data:\n      cpb: bitrate max/min/avg: 2000000/0/2000000 buffer size: 2000000 vbv_delay: N/A\nframe=    0 fps=0.0 q=0.0 size=       0KiB time=N/A bitrate=N/A speed=N/A elapsed=0:00:00.51    \nframe=    0 fps=0.0 q=0.0 size=       0KiB time=N/A bitrate=N/A speed=N/A elapsed=0:00:01.13    \nframe=    0 fps=0.0 q=0.0 size=       0KiB time=N/A bitrate=N/A speed=N/A elapsed=0:00:01.67    \nframe=   17 fps=7.4 q=38.0 size=       0KiB time=00:00:00.26 bitrate=   1.4kbits/s speed=0.116x elapsed=0:00:02.28    \nframe=   38 fps= 13 q=38.0 size=       0KiB time=00:00:01.10 bitrate=   0.3kbits/s speed=0.363x elapsed=0:00:03.03    \nframe=   59 fps= 16 q=38.0 size=     256KiB time=00:00:01.70 bitrate=1233.8kbits/s speed=0.467x elapsed=0:00:03.64    \nframe=   80 fps= 19 q=38.0 size=     512KiB time=00:00:02.60 bitrate=1613.3kbits/s speed=0.617x elapsed=0:00:04.21    \nframe=   99 fps= 20 q=38.0 size=     512KiB time=00:00:03.23 bitrate=1297.3kbits/s speed=0.666x elapsed=0:00:04.85    \nframe=  119 fps= 22 q=37.0 size=     768KiB time=00:00:03.90 bitrate=1613.3kbits/s speed=0.719x elapsed=0:00:05.42    \n[mp4 @ 000001ecf6434a00] Starting second pass: moving the moov atom to the beginning of the file\n[out#0/mp4 @ 000001ecf597c4c0] video:1085KiB audio:0KiB subtitle:0KiB other streams:0KiB global headers:0KiB muxing overhead: 0.235763%\nframe=  150 fps= 25 q=-1.0 Lsize=    1087KiB time=00:00:04.93 bitrate=1805.6kbits/s speed=0.833x elapsed=0:00:05.92    \n[libx264 @ 000001ecf622bb80] frame I:1     Avg QP:35.81  size: 25212\n[libx264 @ 000001ecf622bb80] frame P:40    Avg QP:36.95  size: 11536\n[libx264 @ 000001ecf622bb80] frame B:109   Avg QP:39.60  size:  5720\n[libx264 @ 000001ecf622bb80] consecutive B-frames:  0.7%  2.7% 14.0% 82.7%\n[libx264 @ 000001ecf622bb80] mb I  I16..4: 51.0% 47.2%  1.8%\n[libx264 @ 000001ecf622bb80] mb P  I16..4: 12.5% 12.0%  0.3%  P16..4: 24.8%  1.7%  1.6%  0.0%  0.0%    skip:47.1%\n[libx264 @ 000001ecf622bb80] mb B  I16..4:  2.6%  3.6%  0.1%  B16..8: 24.0%  1.2%  0.1%  direct: 0.6%  skip:67.8%  L0:44.0% L1:55.0% BI: 1.0%\n[libx264 @ 000001ecf622bb80] 8x8 transform intra:51.8% inter:92.6%\n[libx264 @ 000001ecf622bb80] direct mvs  spatial:91.7% temporal:8.3%\n[libx264 @ 000001ecf622bb80] coded y,uvDC,uvAC intra: 16.8% 28.7% 2.1% inter: 2.4% 3.3% 0.0%\n[libx264 @ 000001ecf622bb80] i16 v,h,dc,p: 29% 22%  6% 43%\n[libx264 @ 000001ecf622bb80] i8 v,h,dc,ddl,ddr,vr,hd,vl,hu: 16%  9% 23%  8% 10% 10%  9%  8%  6%\n[libx264 @ 000001ecf622bb80] i4 v,h,dc,ddl,ddr,vr,hd,vl,hu: 17% 11% 18%  8% 14% 11% 10%  6%  6%\n[libx264 @ 000001ecf622bb80] i8c dc,h,v,p: 72% 14% 10%  4%\n[libx264 @ 000001ecf622bb80] Weighted P-Frames: Y:7.5% UV:7.5%\n[libx264 @ 000001ecf622bb80] ref P L0: 48.7% 11.2% 22.0%  8.5%  8.9%  0.8%\n[libx264 @ 000001ecf622bb80] ref B L0: 78.8% 13.1%  6.2%  1.9%\n[libx264 @ 000001ecf622bb80] ref B L1: 94.6%  5.4%\n[libx264 @ 000001ecf622bb80] kb/s:1776.16\n",
  "seconds": 6.340334177017212,
  "probe_out": {}
}